<?xml version="1.0" standalone="no"?>
<!DOCTYPE svg PUBLIC "-//W3C//DTD SVG 20010904//EN"
 "http://www.w3.org/TR/2001/REC-SVG-20010904/DTD/svg10.dtd">
<svg version="1.0" xmlns="http://www.w3.org/2000/svg"
 width="512.000000pt" height="512.000000pt" viewBox="0 0 512.000000 512.000000"
 preserveAspectRatio="xMidYMid meet">
<metadata>
Created by potrace 1.11, written by Peter Selinger 2001-2013
</metadata>
<g transform="translate(0.000000,512.000000) scale(0.100000,-0.100000)"
fill="#000000" stroke="none">
<path d="M2500 5100 c-123 -42 -185 -174 -144 -306 53 -171 291 -218 411 -80
87 98 72 272 -30 348 -71 53 -153 66 -237 38z"/>
<path d="M1975 4543 c-138 -27 -218 -118 -217 -246 2 -128 88 -221 216 -234
98 -10 180 29 229 109 88 143 5 341 -153 364 -19 3 -39 6 -45 8 -5 1 -19 1
-30 -1z"/>
<path d="M3078 4520 c-79 -24 -142 -96 -158 -180 -11 -60 -7 -97 19 -155 35
-80 99 -124 190 -132 146 -13 255 76 266 217 11 145 -94 261 -234 259 -31 0
-68 -4 -83 -9z"/>
<path d="M1328 3955 c-120 -44 -181 -175 -142 -306 58 -195 351 -218 443 -34
49 97 28 220 -50 293 -61 57 -168 77 -251 47z"/>
<path d="M2488 3946 c-87 -31 -145 -105 -155 -200 -8 -75 11 -137 58 -190 48
-55 105 -79 186 -78 165 0 272 154 223 320 -37 120 -186 191 -312 148z"/>
<path d="M3665 3941 c-64 -16 -126 -63 -150 -116 -19 -42 -32 -96 -29 -120 10
-75 16 -98 35 -129 60 -102 204 -140 319 -84 173 85 170 349 -6 433 -40 19
-122 27 -169 16z"/>
<path d="M761 3388 c-90 -25 -155 -99 -167 -192 -21 -151 76 -273 221 -281 99
-5 189 46 230 129 65 134 1 297 -135 341 -37 12 -110 13 -149 3z"/>
<path d="M1935 3383 c-119 -28 -190 -122 -187 -249 2 -133 96 -224 235 -229
93 -3 176 44 216 123 81 160 -19 346 -192 356 -29 2 -61 1 -72 -1z"/>
<path d="M3087 3369 c-119 -27 -190 -126 -182 -256 6 -94 44 -151 126 -192 51
-25 69 -29 122 -27 161 8 259 139 225 301 -27 123 -159 203 -291 174z"/>
<path d="M4255 3359 c-78 -17 -134 -58 -168 -123 -29 -55 -31 -174 -3 -226 41
-78 104 -119 197 -127 71 -7 145 17 191 62 109 106 87 309 -43 384 -42 24
-132 40 -174 30z"/>
<path d="M195 2820 c-110 -24 -182 -108 -189 -221 -9 -141 91 -251 229 -253
75 -1 108 7 151 36 116 78 134 268 36 371 -51 54 -152 83 -227 67z"/>
<path d="M1353 2809 c-77 -14 -131 -56 -169 -129 -24 -48 -25 -172 -1 -217 82
-155 297 -177 410 -43 32 38 49 97 48 167 -1 143 -140 251 -288 222z"/>
<path d="M2503 2795 c-66 -15 -113 -47 -147 -101 -82 -130 -28 -303 112 -358
87 -33 211 -8 269 55 80 88 83 239 5 330 -57 66 -148 94 -239 74z"/>
<path d="M3650 2781 c-113 -37 -172 -118 -172 -237 0 -255 360 -329 461 -95
39 92 12 224 -58 283 -55 46 -167 70 -231 49z"/>
<path d="M4789 2765 c-165 -53 -210 -292 -78 -410 71 -62 189 -76 278 -32 168
84 168 341 -1 428 -51 26 -141 33 -199 14z"/>
<path d="M725 2225 c-122 -47 -183 -205 -126 -327 24 -52 36 -67 79 -97 88
-62 227 -54 305 18 52 47 72 98 72 182 0 67 -3 81 -30 125 -44 70 -106 106
-192 110 -45 3 -82 -1 -108 -11z"/>
<path d="M1902 2221 c-123 -31 -200 -188 -155 -315 47 -135 205 -197 343 -133
40 18 99 88 112 132 16 54 13 142 -5 185 -20 45 -67 93 -115 116 -42 20 -130
27 -180 15z"/>
<path d="M3045 2199 c-99 -37 -148 -111 -149 -224 -1 -59 4 -78 27 -120 98
-177 384 -151 439 40 15 52 13 134 -5 176 -49 118 -188 175 -312 128z"/>
<path d="M4210 2193 c-101 -35 -160 -118 -160 -228 0 -135 89 -231 224 -240
102 -7 188 42 232 131 23 47 26 64 22 122 -5 70 -20 108 -60 153 -56 63 -172
91 -258 62z"/>
<path d="M1305 1641 c-95 -32 -145 -101 -152 -209 -10 -144 81 -247 227 -255
140 -9 250 94 249 233 0 102 -43 179 -123 218 -60 30 -137 35 -201 13z"/>
<path d="M2502 1638 c-145 -25 -226 -166 -182 -316 63 -209 381 -213 456 -5
40 113 -12 250 -114 303 -36 18 -112 27 -160 18z"/>
<path d="M3663 1629 c-129 -23 -207 -125 -197 -259 12 -154 149 -247 307 -211
156 36 225 244 127 381 -47 66 -149 104 -237 89z"/>
<path d="M1877 1056 c-91 -33 -148 -113 -152 -215 -4 -104 42 -183 131 -227
48 -23 63 -26 124 -22 163 12 254 142 215 308 -30 129 -182 204 -318 156z"/>
<path d="M3037 1046 c-90 -33 -144 -104 -154 -202 -17 -158 100 -275 261 -262
34 3 75 12 92 21 166 86 167 344 1 429 -52 26 -149 33 -200 14z"/>
<path d="M2432 465 c-62 -29 -101 -72 -122 -135 -30 -90 -13 -182 48 -247 49
-53 100 -75 176 -76 100 0 174 43 219 128 27 52 29 164 5 216 -55 115 -209
169 -326 114z"/>
</g>
</svg>
